<svg width="16" height="16" viewBox="0 0 16 16" fill="none" xmlns="http://www.w3.org/2000/svg">
<g clip-path="url(#clip0_238_90)">
<path d="M12.9109 1.23227H12.3141V0.628384C12.3141 0.28335 12.0344 0.00366211 11.6894 0.00366211C11.3444 0.00366211 11.0647 0.28335 11.0647 0.628384V1.23227H4.9353V0.628384C4.9353 0.28335 4.65561 0.00366211 4.31058 0.00366211C3.96555 0.00366211 3.68586 0.28335 3.68586 0.628384V1.23227H3.08909C1.38576 1.23227 0 2.61803 0 4.32133V12.9074C0 14.6108 1.38576 15.9965 3.08909 15.9965H12.9109C14.6142 15.9965 16 14.6108 16 12.9074V4.32133C16 2.61803 14.6142 1.23227 12.9109 1.23227ZM3.08909 2.48171H3.68586V3.69992C3.68586 4.04496 3.96555 4.32464 4.31058 4.32464C4.65561 4.32464 4.9353 4.04496 4.9353 3.69992V2.48171H11.0647V3.69992C11.0647 4.04496 11.3444 4.32464 11.6894 4.32464C12.0345 4.32464 12.3141 4.04496 12.3141 3.69992V2.48171H12.9109C13.9253 2.48171 14.7506 3.30697 14.7506 4.32133V4.91813H1.24944V4.32133C1.24944 3.30697 2.0747 2.48171 3.08909 2.48171ZM12.9109 14.7471H3.08909C2.0747 14.7471 1.24944 13.9218 1.24944 12.9074V6.16757H14.7506V12.9074C14.7506 13.9218 13.9253 14.7471 12.9109 14.7471ZM5.54962 8.62482C5.54962 8.96986 5.26993 9.24955 4.9249 9.24955H3.69629C3.35126 9.24955 3.07157 8.96986 3.07157 8.62482C3.07157 8.27979 3.35126 8.0001 3.69629 8.0001H4.9249C5.2699 8.0001 5.54962 8.27979 5.54962 8.62482ZM12.9285 8.62482C12.9285 8.96986 12.6488 9.24955 12.3037 9.24955H11.0751C10.7301 9.24955 10.4504 8.96986 10.4504 8.62482C10.4504 8.27979 10.7301 8.0001 11.0751 8.0001H12.3037C12.6487 8.0001 12.9285 8.27979 12.9285 8.62482ZM9.23548 8.62482C9.23548 8.96986 8.95579 9.24955 8.61076 9.24955H7.38215C7.03712 9.24955 6.75743 8.96986 6.75743 8.62482C6.75743 8.27979 7.03712 8.0001 7.38215 8.0001H8.61076C8.95576 8.0001 9.23548 8.27979 9.23548 8.62482ZM5.54962 12.3107C5.54962 12.6557 5.26993 12.9354 4.9249 12.9354H3.69629C3.35126 12.9354 3.07157 12.6557 3.07157 12.3107C3.07157 11.9656 3.35126 11.686 3.69629 11.686H4.9249C5.2699 11.686 5.54962 11.9656 5.54962 12.3107ZM12.9285 12.3107C12.9285 12.6557 12.6488 12.9354 12.3037 12.9354H11.0751C10.7301 12.9354 10.4504 12.6557 10.4504 12.3107C10.4504 11.9656 10.7301 11.686 11.0751 11.686H12.3037C12.6487 11.686 12.9285 11.9656 12.9285 12.3107ZM9.23548 12.3107C9.23548 12.6557 8.95579 12.9354 8.61076 12.9354H7.38215C7.03712 12.9354 6.75743 12.6557 6.75743 12.3107C6.75743 11.9656 7.03712 11.686 7.38215 11.686H8.61076C8.95576 11.686 9.23548 11.9656 9.23548 12.3107Z" fill="#718A96"/>
</g>
<defs>
<clipPath id="clip0_238_90">
<rect width="16" height="16" fill="white"/>
</clipPath>
</defs>
</svg>
